<svg width="108" height="104" viewBox="0 0 108 104" fill="none" xmlns="http://www.w3.org/2000/svg">
<circle cx="52" cy="52" r="52" fill="#FEEFC3"/>
<path d="M50 17.1547C51.2376 16.4402 52.7624 16.4402 54 17.1547L81.1769 32.8453C82.4145 33.5598 83.1769 34.8803 83.1769 36.3094V67.6906C83.1769 69.1197 82.4145 70.4402 81.1769 71.1547L54 86.8453C52.7624 87.5598 51.2376 87.5598 50 86.8453L22.8231 71.1547C21.5855 70.4402 20.8231 69.1197 20.8231 67.6906V36.3094C20.8231 34.8803 21.5855 33.5598 22.8231 32.8453L50 17.1547Z" fill="#F9AB00"/>
<circle cx="94" cy="19" r="14" fill="white"/>
<path fill-rule="evenodd" clip-rule="evenodd" d="M94.0007 6.33301C87.5607 6.33301 82.334 11.5597 82.334 17.9997C82.334 24.4397 87.5607 29.6663 94.0007 29.6663C100.441 29.6663 105.667 24.4397 105.667 17.9997C105.667 11.5597 100.441 6.33301 94.0007 6.33301ZM91.6673 20.5663L88.634 17.533L87.0007 19.1663L91.6673 23.833L101.001 14.4997L99.3673 12.8663L91.6673 20.5663Z" fill="#5BB974"/>
</svg>
