<svg width="303" height="233" viewBox="0 0 303 233" fill="none" xmlns="http://www.w3.org/2000/svg">
<path d="M40.0078 57L42.7231 62.2847L48.0078 65L42.7231 67.7153L40.0078 73L37.2925 67.7153L32.0078 65L37.2925 62.2847L40.0078 57Z" fill="#FDE293"/>
<path d="M111.008 200L113.723 205.285L119.008 208L113.723 210.715L111.008 216L108.293 210.715L103.008 208L108.293 205.285L111.008 200Z" fill="#FDD663"/>
<path d="M160.008 1L162.723 6.28471L168.008 9L162.723 11.7153L160.008 17L157.293 11.7153L152.008 9L157.293 6.28471L160.008 1Z" fill="#FCC934"/>
<circle cx="58.0078" cy="159" r="4" fill="#FCC934"/>
<circle cx="265.008" cy="172" r="4" fill="#FEEFC3"/>
<circle cx="209.008" cy="214" r="3" fill="#FEEFC3"/>
<circle cx="90.0078" cy="53" r="4" fill="#FEEFC3"/>
<circle cx="18.0078" cy="217" r="4" fill="#FEEFC3"/>
<circle cx="297.008" cy="26" r="4" fill="#FCC934"/>
<circle cx="210.008" cy="24" r="4" fill="#FDE293"/>
<rect x="264.008" y="73.8281" width="4" height="10" rx="2" transform="rotate(-45 264.008 73.8281)" fill="#FEEFC3"/>
<rect x="78.2695" y="193.724" width="4" height="10" rx="2" transform="rotate(75 78.2695 193.724)" fill="#FEEFC3"/>
<rect x="275.287" y="228.717" width="4" height="10" rx="2" transform="rotate(120 275.287 228.717)" fill="#FDD663"/>
<rect x="115.594" y="28.2969" width="4" height="10" rx="2" transform="rotate(-165 115.594 28.2969)" fill="#FCC934"/>
<rect x="17.0078" y="126.951" width="6" height="16" rx="3" transform="rotate(105 17.0078 126.951)" fill="#FEEFC3"/>
<rect x="255.078" y="33" width="4" height="10" rx="2" transform="rotate(45 255.078 33)" fill="#FCC934"/>
<g clip-path="url(#clip0_4591_60211)">
<path d="M296.58 119.653L292.009 120.878L291.81 117.382L291.77 117.145C291.69 116.848 291.493 116.605 291.245 116.462L290.273 115.907C290.273 115.907 286.467 122.246 286.438 122.37L288.961 131.788L296.93 129.653C297.532 129.492 297.949 128.992 298.026 128.412L298.846 122.718C298.866 122.534 298.856 122.351 298.805 122.162L298.417 120.713C298.204 119.916 297.377 119.439 296.58 119.653Z" fill="#FDD663"/>
<path d="M284.989 122.759L282.091 123.535L284.615 132.953L287.512 132.176L284.989 122.759Z" fill="#FDD663"/>
</g>
<g clip-path="url(#clip1_4591_60211)">
<path d="M62.5207 9.14773L57.9495 7.92287L59.5248 4.79657L59.6086 4.57057C59.6882 4.27355 59.6388 3.96526 59.4956 3.71725L58.9316 2.75082C58.9316 2.75082 52.4656 6.33699 52.3785 6.43013L49.855 15.8479L57.8239 17.9832C58.4252 18.1443 59.0366 17.9199 59.3937 17.4565L62.95 12.9354C63.0599 12.7863 63.1427 12.6221 63.1931 12.4337L63.5814 10.9848C63.7949 10.188 63.3176 9.36126 62.5207 9.14773Z" fill="#FDE293"/>
<path d="M50.9296 6.0419L48.0318 5.26545L45.5083 14.6832L48.4061 15.4597L50.9296 6.0419Z" fill="#FDE293"/>
</g>
<defs>
<clipPath id="clip0_4591_60211">
<rect width="18" height="18" fill="white" transform="translate(280.008 118.658) rotate(-15)"/>
</clipPath>
<clipPath id="clip1_4591_60211">
<rect width="18" height="18" fill="white" transform="translate(48.666) rotate(15)"/>
</clipPath>
</defs>
</svg>
