<?xml version="1.0" encoding="UTF-8"?>
<svg width="196px" height="74px" viewBox="0 0 196 74" version="1.1" xmlns="http://www.w3.org/2000/svg" xmlns:xlink="http://www.w3.org/1999/xlink">
    <!-- Generator: Sketch 63.1 (92452) - https://sketch.com -->
    <title>illu/feedback</title>
    <desc>Created with Sketch.</desc>
    <g id="Symbols" stroke="none" stroke-width="1" fill="none" fill-rule="evenodd">
        <g id="Feedback-promo" transform="translate(-621.000000, 0.000000)">
            <g id="illu/feedback" transform="translate(620.000000, 0.000000)">
                <g id="Group-9">
                    <path d="M125.722331,26.311506 C124.370045,25.8450693 122.242419,25.8210187 121.053517,25.1833122 C119.359877,24.2766759 118.529104,22.3045232 117.123573,21.0385848 C114.567068,18.7355536 110.289206,18.673605 107.666326,20.8993826 C105.966851,16.6671983 102.026696,13.6615968 97.6540142,12.3555741 C91.0377339,10.3797773 85.3382946,13.7701891 85.3382946,13.7701891 C85.3382946,13.7701891 83.5746339,-5.21305592 63.5799155,1.39795555 C53.990649,4.56899633 56.221118,14.568962 56.221118,14.568962 C56.221118,14.568962 54.714202,14.2366258 53.9074987,14.2366258 C49.6960113,14.2366258 46.2810158,17.3901752 46.2810158,21.2798201 C46.2810158,22.3919801 46.5683947,23.440005 47.0658375,24.3757937 C44.3729363,25.0054832 42.1329852,25.6679691 40.287633,26.307862 C38.2584751,27.0104323 38.7515415,30 40.8995897,30 L125.097245,30 C127.23727,30 127.746383,27.0089746 125.722331,26.311506" id="Fill-1" fill="#E8EAED"></path>
                    <path d="M196.488853,73.77032 C196.541699,73.6163787 195.418298,71.4990415 189.454383,69.5786459 C186.740491,68.7031588 188.044592,66.9410045 186.351818,63.92582 C183.881699,59.0212002 176.950364,57.6202488 174.678844,58.3443747 C174.995919,45.5440307 165.047254,41.77032 158.505445,41.77032 C152.93958,41.77032 147.778582,45.0830669 146.506871,49.9077061 C142.983244,48.3287333 138.916667,47.9898905 135.075965,49.2859211 C131.76713,50.4047902 128.913452,52.6898287 127.161014,55.7437135 C125.765713,58.1723733 123.999637,62.2591265 124.47525,66.8206035 C120.123135,68.0117132 116.200607,68.6343583 112.225232,70.7792157 C111.521189,71.1593388 108.945378,73.7169996 111.821217,73.7169996 C114.697056,73.7169996 186.777995,73.1631551 196.488853,73.77032" id="Fill-3" fill="#E8EAED"></path>
                    <path d="M2,53.6194079 C8.8344,50.3306079 22.0664,53.2274079 31.8888,60.1546079 C43.352,68.2362079 59.2032,70.9162079 65.4544,54.5434079 C67.6416,48.8154079 65.6784,38.3210079 54.7576,41.7394079 C50.8592,42.9610079 48.2992,49.2410079 49.9488,52.9786079 C54.5152,63.3258079 64.832,63.1010079 70.5472,61.7634079 C78.18,59.9762079 78.26,52.2610079 83.092,48.8194079 C87.2864,45.8322079 94.3656,44.7290079 99.4656,46.5234079" id="Stroke-18" stroke="#E8EAED" stroke-width="3" stroke-dasharray="3.012,3.012" transform="translate(50.732800, 53.811202) rotate(-8.000000) translate(-50.732800, -53.811202) "></path>
                    <g id="Group-8" transform="translate(86.813440, 4.026960)">
                        <polygon id="Fill-6" fill="#D2E3FC" points="63.39112 32.7488 15.29992 55.2168 0.000719999998 22.4688 48.09112 -2.65387712e-12"></polygon>
                        <polyline id="Stroke-10" stroke="#8AB4F8" stroke-linecap="round" points="15.481445 54.755714 27.41656 18.4488 62.9231564 32.587996"></polyline>
                        <path d="M28.37472,32.96912 L0.000320000004,22.46912 L48.09152,0.00112 L37.93792,28.50112 C36.51632,32.48992 32.34592,34.43792 28.37472,32.96912" id="Fill-12" fill="#8AB4F8"></path>
                        <path d="M27.6216,31.35664 L4.68958206e-13,22.46864 L48.0904,0.000639999994 L37.1848,26.88864 C35.6576,30.65184 31.4872,32.60144 27.6216,31.35664" id="Fill-14" fill="#D2E3FC"></path>
                    </g>
                </g>
            </g>
        </g>
    </g>
</svg>
