<?xml version="1.0" encoding="UTF-8"?>
<svg width="74px" height="24px" viewBox="0 0 74 24" version="1.1" xmlns="http://www.w3.org/2000/svg" xmlns:xlink="http://www.w3.org/1999/xlink">
    <!-- Generator: Sketch 63.1 (92452) - https://sketch.com -->
    <title>logo_Google_OneColor</title>
    <desc>Created with Sketch.</desc>
    <g id="Symbols" stroke="none" stroke-width="1" fill="none" fill-rule="evenodd">
        <g id="Googe+legal" fill="#5F6368">
            <g id="logo_Google_OneColor" transform="translate(0.000000, 0.000000)">
                <g id="logo_Google_OneColor_208x68px">
                    <path d="M9.39529412,18.5223529 C4.29176471,18.5223529 0,14.3647059 0,9.26117647 C0,4.15411765 4.29176471,0 9.39529412,0 C12.2188235,0 14.2270588,1.10823529 15.7411765,2.55176471 L13.9552941,4.33764706 C12.8717647,3.32117647 11.4035294,2.53058824 9.39176471,2.53058824 C5.66470588,2.53058824 2.75294118,5.53411765 2.75294118,9.26117647 C2.75294118,12.9882353 5.66470588,15.9917647 9.39176471,15.9917647 C11.8094118,15.9917647 13.1858824,15.0211765 14.0682353,14.1388235 C14.7917647,13.4152941 15.2647059,12.3776471 15.4447059,10.9552941 L9.39529412,10.9552941 L9.39529412,8.42470588 L17.9117647,8.42470588 C18.0035294,8.87647059 18.0458824,9.42 18.0458824,10.0058824 C18.0458824,11.9047059 17.5270588,14.2517647 15.8541176,15.9247059 C14.2305882,17.6188235 12.1517647,18.5223529 9.39529412,18.5223529 Z" id="Path" fill-rule="nonzero"></path>
                    <path d="M30.8894118,12.5576471 C30.8894118,15.9917647 28.2,18.5188235 24.9035294,18.5188235 C21.6070588,18.5188235 18.9176471,15.9882353 18.9176471,12.5576471 C18.9176471,9.10235294 21.6070588,6.59647059 24.9035294,6.59647059 C28.2035294,6.59647059 30.8894118,9.10235294 30.8894118,12.5576471 Z M28.2705882,12.5576471 C28.2705882,10.4117647 26.7105882,8.94352941 24.9035294,8.94352941 C23.0964706,8.94352941 21.5364706,10.4117647 21.5364706,12.5576471 C21.5364706,14.6823529 23.0964706,16.1717647 24.9035294,16.1717647 C26.7141176,16.1717647 28.2705882,14.6823529 28.2705882,12.5576471 Z" id="Shape" fill-rule="nonzero"></path>
                    <path d="M43.9482353,12.5576471 C43.9482353,15.9917647 41.2588235,18.5188235 37.9623529,18.5188235 C34.6658824,18.5188235 31.9764706,15.9882353 31.9764706,12.5576471 C31.9764706,9.10235294 34.6658824,6.59647059 37.9623529,6.59647059 C41.2623529,6.59647059 43.9482353,9.10235294 43.9482353,12.5576471 Z M41.3294118,12.5576471 C41.3294118,10.4117647 39.7694118,8.94352941 37.9623529,8.94352941 C36.1552941,8.94352941 34.5952941,10.4117647 34.5952941,12.5576471 C34.5952941,14.6823529 36.1552941,16.1717647 37.9623529,16.1717647 C39.7729412,16.1717647 41.3294118,14.6823529 41.3294118,12.5576471 Z" id="Shape" fill-rule="nonzero"></path>
                    <path d="M56.4988235,6.95647059 L56.4988235,17.6611765 C56.4988235,22.0658824 53.9011765,23.8729412 50.8305882,23.8729412 C47.94,23.8729412 46.2,21.9317647 45.5470588,20.3505882 L47.8270588,19.4011765 C48.2329412,20.3717647 49.2282353,21.5258824 50.8305882,21.5258824 C52.7964706,21.5258824 54.0141176,20.3047059 54.0141176,18.0247059 L54.0141176,17.1670588 L53.9223529,17.1670588 C53.3364706,17.8905882 52.2070588,18.5223529 50.7811765,18.5223529 C47.7988235,18.5223529 45.0670588,15.9247059 45.0670588,12.5823529 C45.0670588,9.21529412 47.7988235,6.59647059 50.7811765,6.59647059 C52.2035294,6.59647059 53.3329412,7.22823529 53.9223529,7.93058824 L54.0141176,7.93058824 L54.0141176,6.96 L56.4988235,6.96 L56.4988235,6.95647059 Z M54.1941176,12.5823529 C54.1941176,10.4823529 52.7929412,8.94705882 51.0105882,8.94705882 C49.2035294,8.94705882 47.6894118,10.4823529 47.6894118,12.5823529 C47.6894118,14.6611765 49.2035294,16.1717647 51.0105882,16.1717647 C52.7929412,16.1717647 54.1941176,14.6576471 54.1941176,12.5823529 Z" id="Shape" fill-rule="nonzero"></path>
                    <polygon id="Path" fill-rule="nonzero" points="60.8929412 0.677647059 60.8929412 18.2047059 58.2741176 18.2047059 58.2741176 0.677647059"></polygon>
                    <path d="M70.9694118,14.5235294 L73.0023529,15.8788235 C72.3458824,16.8494118 70.7647059,18.5223529 68.0329412,18.5223529 C64.6447059,18.5223529 62.1141176,15.9035294 62.1141176,12.5611765 C62.1141176,9.01411765 64.6658824,6.6 67.7364706,6.6 C70.8317647,6.6 72.3423529,9.06352941 72.84,10.3941176 L73.1117647,11.0717647 L65.1388235,14.3682353 C65.7494118,15.5647059 66.6988235,16.1752941 68.0294118,16.1752941 C69.36,16.1752941 70.2917647,15.5152941 70.9694118,14.5235294 Z M64.7117647,12.3776471 L70.0411765,10.1647059 C69.7482353,9.42 68.8658824,8.90116855 67.8282353,8.90116855 C66.4941176,8.89764706 64.6447059,10.0729412 64.7117647,12.3776471 Z" id="Shape" fill-rule="nonzero"></path>
                </g>
            </g>
        </g>
    </g>
</svg>
