<?xml version="1.0" encoding="UTF-8"?>
<svg width="240px" height="21px" viewBox="0 0 240 21" version="1.1" xmlns="http://www.w3.org/2000/svg" xmlns:xlink="http://www.w3.org/1999/xlink">
    <!-- Generator: Sketch 63.1 (92452) - https://sketch.com -->
    <title>TT lockup</title>
    <desc>Created with Sketch.</desc>
    <defs>
        <path d="M5.03370787,17.3662921 C5.71685393,17.3662921 6.38202247,17.2344569 7.02921348,16.9707865 C7.67640449,16.7071161 8.21273408,16.293633 8.63820225,15.7303371 C9.06367041,15.1670412 9.27640449,14.4719101 9.27640449,13.6449438 C9.27640449,12.6262172 8.97078652,11.8202247 8.35955056,11.2269663 C7.74831461,10.6337079 6.89737828,10.1393258 5.80674157,9.74382022 L5.80674157,9.74382022 L4.96179775,9.45617978 C4.1588015,9.18052434 3.55955056,8.88389513 3.16404494,8.56629213 C2.76853933,8.24868914 2.57078652,7.83820225 2.57078652,7.33483146 C2.57078652,6.77153558 2.80449438,6.30411985 3.27191011,5.93258427 C3.73932584,5.56104869 4.30262172,5.3752809 4.96179775,5.3752809 C5.65692884,5.3752809 6.21722846,5.55505618 6.64269663,5.91460674 C7.06816479,6.2741573 7.34681648,6.67565543 7.47865169,7.11910112 L7.47865169,7.11910112 L8.8988764,6.50786517 C8.7670412,6.12434457 8.53632959,5.73483146 8.20674157,5.33932584 C7.87715356,4.94382022 7.43670412,4.6082397 6.88539326,4.33258427 C6.3340824,4.05692884 5.68689139,3.91910112 4.94382022,3.91910112 C4.20074906,3.91910112 3.52958801,4.07490637 2.93033708,4.38651685 C2.33108614,4.69812734 1.86367041,5.11460674 1.52808989,5.63595506 C1.19250936,6.15730337 1.0247191,6.72359551 1.0247191,7.33483146 C1.0247191,8.26966292 1.31235955,9.00074906 1.88764045,9.52808989 C2.46292135,10.0554307 3.20599251,10.4808989 4.11685393,10.8044944 L4.11685393,10.8044944 L4.9258427,11.0921348 C5.92059925,11.4277154 6.63670412,11.7902622 7.0741573,12.1797753 C7.51161049,12.5692884 7.73033708,13.0636704 7.73033708,13.6629213 C7.73033708,14.3580524 7.47265918,14.906367 6.95730337,15.3078652 C6.44194757,15.7093633 5.81273408,15.9101124 5.06966292,15.9101124 C4.32659176,15.9101124 3.67940075,15.6644195 3.12808989,15.1730337 C2.57677903,14.6816479 2.19925094,14.0524345 1.99550562,13.2853933 L1.99550562,13.2853933 L0.539325843,13.8786517 C0.743071161,14.6217228 1.07865169,15.2539326 1.54606742,15.7752809 C2.01348315,16.2966292 2.54981273,16.6921348 3.15505618,16.9617978 C3.76029963,17.2314607 4.38651685,17.3662921 5.03370787,17.3662921 Z M15.541573,17.3662921 C16.5003745,17.3662921 17.3213483,17.1475655 18.0044944,16.7101124 C18.6876404,16.2726592 19.2209738,15.6883895 19.6044944,14.9573034 L19.6044944,14.9573034 L18.3101124,14.3280899 C17.6988764,15.4307116 16.7940075,15.9820225 15.5955056,15.9820225 C15.0921348,15.9820225 14.6097378,15.8621723 14.1483146,15.6224719 C13.6868914,15.3827715 13.306367,15.023221 13.0067416,14.5438202 C12.7071161,14.0644195 12.5393258,13.4771536 12.5033708,12.7820225 L12.5033708,12.7820225 L19.7662921,12.7820225 C19.7902622,12.6142322 19.8022472,12.458427 19.8022472,12.3146067 C19.8022472,11.4037453 19.6254682,10.5947566 19.2719101,9.88764045 C18.9183521,9.18052434 18.411985,8.62621723 17.752809,8.2247191 C17.093633,7.82322097 16.3146067,7.62247191 15.4157303,7.62247191 C14.540824,7.62247191 13.764794,7.84419476 13.0876404,8.28764045 C12.4104869,8.73108614 11.8891386,9.32734082 11.5235955,10.0764045 C11.1580524,10.8254682 10.9752809,11.6374532 10.9752809,12.5123596 C10.9752809,13.435206 11.1700375,14.2651685 11.5595506,15.0022472 C11.9490637,15.7393258 12.4913858,16.317603 13.1865169,16.7370787 C13.8816479,17.1565543 14.6666667,17.3662921 15.541573,17.3662921 Z M18.1842697,11.5235955 L12.5932584,11.5235955 C12.7490637,10.7685393 13.0786517,10.1602996 13.5820225,9.6988764 C14.0853933,9.23745318 14.6966292,9.00674157 15.4157303,9.00674157 C16.0389513,9.00674157 16.5543071,9.13857678 16.9617978,9.40224719 C17.3692884,9.6659176 17.6689139,9.98951311 17.8606742,10.3730337 C18.0524345,10.7565543 18.1602996,11.1400749 18.1842697,11.5235955 L18.1842697,11.5235955 Z M24.8269663,17.3662921 C25.4861423,17.3662921 26.0794007,17.2104869 26.6067416,16.8988764 C27.1340824,16.5872659 27.529588,16.2097378 27.7932584,15.7662921 L27.7932584,15.7662921 L27.8651685,15.7662921 L27.8651685,17.0786517 L29.3213483,17.0786517 L29.3213483,11.2719101 C29.3213483,10.1453184 28.9677903,9.25543071 28.2606742,8.60224719 C27.5535581,7.94906367 26.576779,7.62247191 25.3303371,7.62247191 C24.5632959,7.62247191 23.8621723,7.77827715 23.2269663,8.08988764 C22.5917603,8.40149813 22.094382,8.8329588 21.7348315,9.38426966 L21.7348315,9.38426966 L22.8853933,10.247191 C23.1370787,9.85168539 23.4816479,9.54307116 23.9191011,9.32134831 C24.3565543,9.09962547 24.8269663,8.98876404 25.3303371,8.98876404 C26.0614232,8.98876404 26.6666667,9.19550562 27.1460674,9.60898876 C27.6254682,10.0224719 27.8651685,10.5707865 27.8651685,11.2539326 L27.8651685,11.2539326 L27.8651685,11.811236 C27.6134831,11.6554307 27.2509363,11.517603 26.7775281,11.3977528 C26.3041199,11.2779026 25.7917603,11.2179775 25.2404494,11.2179775 C24.1258427,11.2179775 23.2029963,11.4906367 22.4719101,12.0359551 C21.740824,12.5812734 21.3752809,13.3393258 21.3752809,14.3101124 C21.3752809,14.8973783 21.5191011,15.4217228 21.8067416,15.8831461 C22.094382,16.3445693 22.5018727,16.7071161 23.0292135,16.9707865 C23.5565543,17.2344569 24.1558052,17.3662921 24.8269663,17.3662921 Z M24.9707865,16.0179775 C24.3835206,16.0179775 23.8981273,15.8621723 23.5146067,15.5505618 C23.1310861,15.2389513 22.9393258,14.8314607 22.9393258,14.3280899 C22.9393258,13.776779 23.1520599,13.3273408 23.5775281,12.9797753 C24.0029963,12.6322097 24.635206,12.458427 25.4741573,12.458427 C25.941573,12.458427 26.3850187,12.5183521 26.8044944,12.6382022 C27.22397,12.7580524 27.5775281,12.9138577 27.8651685,13.105618 C27.8651685,13.6329588 27.7333333,14.1183521 27.4696629,14.5617978 C27.2059925,15.0052434 26.8524345,15.3588015 26.4089888,15.6224719 C25.9655431,15.8861423 25.4861423,16.0179775 24.9707865,16.0179775 Z M33.1955056,17.0786517 L33.1955056,11.9550562 C33.1955056,11.4636704 33.306367,11.0052434 33.5280899,10.5797753 C33.7498127,10.1543071 34.0464419,9.81573034 34.4179775,9.56404494 C34.7895131,9.31235955 35.1970037,9.18651685 35.6404494,9.18651685 C36.1198502,9.18651685 36.5513109,9.282397 36.9348315,9.4741573 L36.9348315,9.4741573 L36.9348315,7.82022472 C36.635206,7.70037453 36.2756554,7.64044944 35.8561798,7.64044944 C35.2928839,7.64044944 34.7535581,7.80524345 34.2382022,8.13483146 C33.7228464,8.46441948 33.3752809,8.88089888 33.1955056,9.38426966 L33.1955056,9.38426966 L33.1235955,9.38426966 L33.1235955,7.91011236 L31.6674157,7.91011236 L31.6674157,17.0786517 L33.1955056,17.0786517 Z M42.247191,17.3662921 C43.2299625,17.3662921 44.0659176,17.1325843 44.7550562,16.6651685 C45.4441948,16.1977528 45.9445693,15.5865169 46.2561798,14.8314607 L46.2561798,14.8314607 L44.8898876,14.2561798 C44.6621723,14.8074906 44.3146067,15.2329588 43.847191,15.5325843 C43.3797753,15.8322097 42.8224719,15.9820225 42.1752809,15.9820225 C41.6359551,15.9820225 41.1325843,15.835206 40.6651685,15.541573 C40.1977528,15.2479401 39.823221,14.8374532 39.541573,14.3101124 C39.2599251,13.7827715 39.1191011,13.1775281 39.1191011,12.494382 C39.1191011,11.811236 39.2599251,11.2059925 39.541573,10.6786517 C39.823221,10.1513109 40.1977528,9.74082397 40.6651685,9.44719101 C41.1325843,9.15355805 41.6359551,9.00674157 42.1752809,9.00674157 C42.8104869,9.00674157 43.352809,9.15355805 43.8022472,9.44719101 C44.2516854,9.74082397 44.5902622,10.1692884 44.8179775,10.7325843 L44.8179775,10.7325843 L46.2022472,10.1573034 C45.9146067,9.39026217 45.4322097,8.77602996 44.7550562,8.31460674 C44.0779026,7.85318352 43.2419476,7.62247191 42.247191,7.62247191 C41.3602996,7.62247191 40.5632959,7.83220974 39.8561798,8.25168539 C39.1490637,8.67116105 38.5977528,9.25243446 38.2022472,9.99550562 C37.8067416,10.7385768 37.6089888,11.5715356 37.6089888,12.494382 C37.6089888,13.4172285 37.8067416,14.247191 38.2022472,14.9842697 C38.5977528,15.7213483 39.1490637,16.3026217 39.8561798,16.7280899 C40.5632959,17.1535581 41.3602996,17.3662921 42.247191,17.3662921 Z M49.6629213,17.0786517 L49.6629213,11.9730337 C49.6629213,11.4816479 49.7797753,11.0082397 50.0134831,10.552809 C50.247191,10.0973783 50.564794,9.7258427 50.9662921,9.43820225 C51.3677903,9.1505618 51.8082397,9.00674157 52.2876404,9.00674157 C52.9588015,9.00674157 53.5041199,9.20449438 53.9235955,9.6 C54.3430712,9.99550562 54.552809,10.6067416 54.552809,11.4337079 L54.552809,11.4337079 L54.552809,17.0786517 L56.0808989,17.0786517 L56.0808989,11.2 C56.0808989,10.1213483 55.7872659,9.25543071 55.2,8.60224719 C54.6127341,7.94906367 53.7617978,7.62247191 52.647191,7.62247191 C52,7.62247191 51.4037453,7.77827715 50.858427,8.08988764 C50.3131086,8.40149813 49.9146067,8.79101124 49.6629213,9.25842697 L49.6629213,9.25842697 L49.5910112,9.25842697 L49.6629213,8 L49.6629213,4.20674157 L48.1348315,4.20674157 L48.1348315,17.0786517 L49.6629213,17.0786517 Z M68.8808989,17.3662921 C69.9235955,17.3662921 70.8853933,17.1595506 71.7662921,16.7460674 C72.647191,16.3325843 73.3812734,15.7722846 73.9685393,15.0651685 L73.9685393,15.0651685 L72.8539326,13.9865169 C71.7632959,15.2689139 70.4389513,15.9101124 68.8808989,15.9101124 C67.9460674,15.9101124 67.0891386,15.6913858 66.3101124,15.2539326 C65.5310861,14.8164794 64.9108614,14.1992509 64.4494382,13.4022472 C63.988015,12.6052434 63.7573034,11.6853933 63.7573034,10.6426966 C63.7573034,9.6 63.988015,8.68014981 64.4494382,7.88314607 C64.9108614,7.08614232 65.5310861,6.46891386 66.3101124,6.03146067 C67.0891386,5.59400749 67.9460674,5.3752809 68.8808989,5.3752809 C69.6359551,5.3752809 70.3041199,5.51310861 70.8853933,5.78876404 C71.4666667,6.06441948 72.0029963,6.49588015 72.494382,7.08314607 L72.494382,7.08314607 L73.5910112,6.02247191 C73.0037453,5.33932584 72.3116105,4.81797753 71.5146067,4.45842697 C70.717603,4.0988764 69.8397004,3.91910112 68.8808989,3.91910112 C67.6344569,3.91910112 66.5018727,4.21273408 65.4831461,4.8 C64.4644195,5.38726592 63.6644195,6.19325843 63.0831461,7.21797753 C62.5018727,8.24269663 62.211236,9.38426966 62.211236,10.6426966 C62.211236,11.9011236 62.5018727,13.0426966 63.0831461,14.0674157 C63.6644195,15.0921348 64.4644195,15.8981273 65.4831461,16.4853933 C66.5018727,17.0726592 67.6344569,17.3662921 68.8808989,17.3662921 Z M79.9460674,17.3662921 C80.8449438,17.3662921 81.6539326,17.1505618 82.3730337,16.7191011 C83.0921348,16.2876404 83.6524345,15.7003745 84.0539326,14.9573034 C84.4554307,14.2142322 84.6561798,13.3932584 84.6561798,12.494382 C84.6561798,11.5955056 84.4554307,10.7745318 84.0539326,10.0314607 C83.6524345,9.28838951 83.0921348,8.7011236 82.3730337,8.26966292 C81.6539326,7.83820225 80.8449438,7.62247191 79.9460674,7.62247191 C79.047191,7.62247191 78.2382022,7.83820225 77.5191011,8.26966292 C76.8,8.7011236 76.2397004,9.28838951 75.8382022,10.0314607 C75.4367041,10.7745318 75.2359551,11.5955056 75.2359551,12.494382 C75.2359551,13.3932584 75.4367041,14.2142322 75.8382022,14.9573034 C76.2397004,15.7003745 76.8,16.2876404 77.5191011,16.7191011 C78.2382022,17.1505618 79.047191,17.3662921 79.9460674,17.3662921 Z M79.9460674,15.9820225 C79.3827715,15.9820225 78.8554307,15.8411985 78.3640449,15.5595506 C77.8726592,15.2779026 77.4801498,14.8734082 77.1865169,14.3460674 C76.8928839,13.8187266 76.7460674,13.2014981 76.7460674,12.494382 C76.7460674,11.7872659 76.8928839,11.1700375 77.1865169,10.6426966 C77.4801498,10.1153558 77.8726592,9.71086142 78.3640449,9.42921348 C78.8554307,9.14756554 79.3827715,9.00674157 79.9460674,9.00674157 C80.5093633,9.00674157 81.0337079,9.14756554 81.5191011,9.42921348 C82.0044944,9.71086142 82.3940075,10.1153558 82.6876404,10.6426966 C82.9812734,11.1700375 83.1280899,11.7872659 83.1280899,12.494382 C83.1280899,13.2014981 82.9812734,13.8187266 82.6876404,14.3460674 C82.3940075,14.8734082 82.0044944,15.2779026 81.5191011,15.5595506 C81.0337079,15.8411985 80.5093633,15.9820225 79.9460674,15.9820225 Z M88.0089888,17.0786517 L88.0089888,11.9191011 C88.0089888,11.4277154 88.1168539,10.9573034 88.3325843,10.5078652 C88.5483146,10.058427 88.8509363,9.69588015 89.2404494,9.42022472 C89.6299625,9.14456929 90.070412,9.00674157 90.5617978,9.00674157 C91.2689139,9.00674157 91.8262172,9.19850187 92.2337079,9.58202247 C92.6411985,9.96554307 92.8449438,10.5827715 92.8449438,11.4337079 L92.8449438,11.4337079 L92.8449438,17.0786517 L94.3730337,17.0786517 L94.3730337,11.2 C94.3730337,10.0973783 94.082397,9.22546816 93.5011236,8.58426966 C92.9198502,7.94307116 92.0779026,7.62247191 90.9752809,7.62247191 C90.3520599,7.62247191 89.764794,7.78127341 89.2134831,8.0988764 C88.6621723,8.4164794 88.2606742,8.80299625 88.0089888,9.25842697 L88.0089888,9.25842697 L87.9370787,9.25842697 L87.9370787,7.91011236 L86.4808989,7.91011236 L86.4808989,17.0786517 L88.0089888,17.0786517 Z M99.9011236,17.3662921 C100.572285,17.3662921 101.183521,17.2524345 101.734831,17.0247191 C102.286142,16.7970037 102.723596,16.470412 103.047191,16.0449438 C103.370787,15.6194757 103.532584,15.1250936 103.532584,14.5617978 C103.532584,13.9146067 103.304869,13.3662921 102.849438,12.9168539 C102.394007,12.4674157 101.716854,12.128839 100.817978,11.9011236 L100.817978,11.9011236 L99.4876404,11.5595506 C98.9602996,11.4277154 98.564794,11.2569288 98.3011236,11.047191 C98.0374532,10.8374532 97.905618,10.564794 97.905618,10.2292135 C97.905618,9.86966292 98.094382,9.57303371 98.4719101,9.33932584 C98.8494382,9.10561798 99.2898876,8.98876404 99.7932584,8.98876404 C100.835955,8.98876404 101.561049,9.39625468 101.968539,10.211236 L101.968539,10.211236 L103.298876,9.6 C103.035206,8.97677903 102.588764,8.49138577 101.959551,8.14382022 C101.330337,7.79625468 100.614232,7.62247191 99.811236,7.62247191 C99.2,7.62247191 98.6307116,7.73033708 98.1033708,7.94606742 C97.57603,8.16179775 97.1535581,8.47041199 96.8359551,8.87191011 C96.5183521,9.27340824 96.3595506,9.73782772 96.3595506,10.2651685 C96.3595506,10.9483146 96.5932584,11.505618 97.0606742,11.9370787 C97.5280899,12.3685393 98.1273408,12.6741573 98.858427,12.8539326 L98.858427,12.8539326 L99.9730337,13.141573 C100.668165,13.3093633 101.177528,13.5101124 101.501124,13.7438202 C101.824719,13.9775281 101.986517,14.2861423 101.986517,14.6696629 C101.986517,15.1011236 101.782772,15.4337079 101.375281,15.6674157 C100.96779,15.9011236 100.476404,16.0179775 99.9011236,16.0179775 C99.3617978,16.0179775 98.8674157,15.8681648 98.4179775,15.5685393 C97.9685393,15.2689139 97.6299625,14.8434457 97.4022472,14.2921348 L97.4022472,14.2921348 L96.0359551,14.9033708 C96.3116105,15.6224719 96.7790262,16.2127341 97.4382022,16.6741573 C98.0973783,17.1355805 98.9183521,17.3662921 99.9011236,17.3662921 Z M109.74382,17.3662921 C110.642697,17.3662921 111.451685,17.1505618 112.170787,16.7191011 C112.889888,16.2876404 113.450187,15.7003745 113.851685,14.9573034 C114.253184,14.2142322 114.453933,13.3932584 114.453933,12.494382 C114.453933,11.5955056 114.253184,10.7745318 113.851685,10.0314607 C113.450187,9.28838951 112.889888,8.7011236 112.170787,8.26966292 C111.451685,7.83820225 110.642697,7.62247191 109.74382,7.62247191 C108.844944,7.62247191 108.035955,7.83820225 107.316854,8.26966292 C106.597753,8.7011236 106.037453,9.28838951 105.635955,10.0314607 C105.234457,10.7745318 105.033708,11.5955056 105.033708,12.494382 C105.033708,13.3932584 105.234457,14.2142322 105.635955,14.9573034 C106.037453,15.7003745 106.597753,16.2876404 107.316854,16.7191011 C108.035955,17.1505618 108.844944,17.3662921 109.74382,17.3662921 Z M109.74382,15.9820225 C109.180524,15.9820225 108.653184,15.8411985 108.161798,15.5595506 C107.670412,15.2779026 107.277903,14.8734082 106.98427,14.3460674 C106.690637,13.8187266 106.54382,13.2014981 106.54382,12.494382 C106.54382,11.7872659 106.690637,11.1700375 106.98427,10.6426966 C107.277903,10.1153558 107.670412,9.71086142 108.161798,9.42921348 C108.653184,9.14756554 109.180524,9.00674157 109.74382,9.00674157 C110.307116,9.00674157 110.831461,9.14756554 111.316854,9.42921348 C111.802247,9.71086142 112.19176,10.1153558 112.485393,10.6426966 C112.779026,11.1700375 112.925843,11.7872659 112.925843,12.494382 C112.925843,13.2014981 112.779026,13.8187266 112.485393,14.3460674 C112.19176,14.8734082 111.802247,15.2779026 111.316854,15.5595506 C110.831461,15.8411985 110.307116,15.9820225 109.74382,15.9820225 Z M117.896629,17.0786517 L117.896629,4.20674157 L116.368539,4.20674157 L116.368539,17.0786517 L117.896629,17.0786517 Z M124.377528,17.3662921 C125.33633,17.3662921 126.157303,17.1475655 126.840449,16.7101124 C127.523596,16.2726592 128.056929,15.6883895 128.440449,14.9573034 L128.440449,14.9573034 L127.146067,14.3280899 C126.534831,15.4307116 125.629963,15.9820225 124.431461,15.9820225 C123.92809,15.9820225 123.445693,15.8621723 122.98427,15.6224719 C122.522846,15.3827715 122.142322,15.023221 121.842697,14.5438202 C121.543071,14.0644195 121.375281,13.4771536 121.339326,12.7820225 L121.339326,12.7820225 L128.602247,12.7820225 C128.626217,12.6142322 128.638202,12.458427 128.638202,12.3146067 C128.638202,11.4037453 128.461423,10.5947566 128.107865,9.88764045 C127.754307,9.18052434 127.24794,8.62621723 126.588764,8.2247191 C125.929588,7.82322097 125.150562,7.62247191 124.251685,7.62247191 C123.376779,7.62247191 122.600749,7.84419476 121.923596,8.28764045 C121.246442,8.73108614 120.725094,9.32734082 120.359551,10.0764045 C119.994007,10.8254682 119.811236,11.6374532 119.811236,12.5123596 C119.811236,13.435206 120.005993,14.2651685 120.395506,15.0022472 C120.785019,15.7393258 121.327341,16.317603 122.022472,16.7370787 C122.717603,17.1565543 123.502622,17.3662921 124.377528,17.3662921 Z M127.020225,11.5235955 L121.429213,11.5235955 C121.585019,10.7685393 121.914607,10.1602996 122.417978,9.6988764 C122.921348,9.23745318 123.532584,9.00674157 124.251685,9.00674157 C124.874906,9.00674157 125.390262,9.13857678 125.797753,9.40224719 C126.205243,9.6659176 126.504869,9.98951311 126.696629,10.3730337 C126.88839,10.7565543 126.996255,11.1400749 127.020225,11.5235955 L127.020225,11.5235955 Z M136.87191,17.0786517 L136.87191,4.20674157 L135.34382,4.20674157 L135.34382,17.0786517 L136.87191,17.0786517 Z M141.195506,17.0786517 L141.195506,11.9191011 C141.195506,11.4277154 141.303371,10.9573034 141.519101,10.5078652 C141.734831,10.058427 142.037453,9.69588015 142.426966,9.42022472 C142.816479,9.14456929 143.256929,9.00674157 143.748315,9.00674157 C144.455431,9.00674157 145.012734,9.19850187 145.420225,9.58202247 C145.827715,9.96554307 146.031461,10.5827715 146.031461,11.4337079 L146.031461,11.4337079 L146.031461,17.0786517 L147.559551,17.0786517 L147.559551,11.2 C147.559551,10.0973783 147.268914,9.22546816 146.68764,8.58426966 C146.106367,7.94307116 145.264419,7.62247191 144.161798,7.62247191 C143.538577,7.62247191 142.951311,7.78127341 142.4,8.0988764 C141.848689,8.4164794 141.447191,8.80299625 141.195506,9.25842697 L141.195506,9.25842697 L141.123596,9.25842697 L141.123596,7.91011236 L139.667416,7.91011236 L139.667416,17.0786517 L141.195506,17.0786517 Z M153.08764,17.3662921 C153.758801,17.3662921 154.370037,17.2524345 154.921348,17.0247191 C155.472659,16.7970037 155.910112,16.470412 156.233708,16.0449438 C156.557303,15.6194757 156.719101,15.1250936 156.719101,14.5617978 C156.719101,13.9146067 156.491386,13.3662921 156.035955,12.9168539 C155.580524,12.4674157 154.903371,12.128839 154.004494,11.9011236 L154.004494,11.9011236 L152.674157,11.5595506 C152.146816,11.4277154 151.751311,11.2569288 151.48764,11.047191 C151.22397,10.8374532 151.092135,10.564794 151.092135,10.2292135 C151.092135,9.86966292 151.280899,9.57303371 151.658427,9.33932584 C152.035955,9.10561798 152.476404,8.98876404 152.979775,8.98876404 C154.022472,8.98876404 154.747566,9.39625468 155.155056,10.211236 L155.155056,10.211236 L156.485393,9.6 C156.221723,8.97677903 155.775281,8.49138577 155.146067,8.14382022 C154.516854,7.79625468 153.800749,7.62247191 152.997753,7.62247191 C152.386517,7.62247191 151.817228,7.73033708 151.289888,7.94606742 C150.762547,8.16179775 150.340075,8.47041199 150.022472,8.87191011 C149.704869,9.27340824 149.546067,9.73782772 149.546067,10.2651685 C149.546067,10.9483146 149.779775,11.505618 150.247191,11.9370787 C150.714607,12.3685393 151.313858,12.6741573 152.044944,12.8539326 L152.044944,12.8539326 L153.159551,13.141573 C153.854682,13.3093633 154.364045,13.5101124 154.68764,13.7438202 C155.011236,13.9775281 155.173034,14.2861423 155.173034,14.6696629 C155.173034,15.1011236 154.969288,15.4337079 154.561798,15.6674157 C154.154307,15.9011236 153.662921,16.0179775 153.08764,16.0179775 C152.548315,16.0179775 152.053933,15.8681648 151.604494,15.5685393 C151.155056,15.2689139 150.816479,14.8434457 150.588764,14.2921348 L150.588764,14.2921348 L149.222472,14.9033708 C149.498127,15.6224719 149.965543,16.2127341 150.624719,16.6741573 C151.283895,17.1355805 152.104869,17.3662921 153.08764,17.3662921 Z M159.424719,6.22022472 C159.73633,6.22022472 159.997004,6.11235955 160.206742,5.89662921 C160.416479,5.68089888 160.521348,5.42322097 160.521348,5.12359551 C160.521348,4.81198502 160.416479,4.55131086 160.206742,4.34157303 C159.997004,4.13183521 159.73633,4.02696629 159.424719,4.02696629 C159.125094,4.02696629 158.867416,4.13183521 158.651685,4.34157303 C158.435955,4.55131086 158.32809,4.81198502 158.32809,5.12359551 C158.32809,5.42322097 158.435955,5.68089888 158.651685,5.89662921 C158.867416,6.11235955 159.125094,6.22022472 159.424719,6.22022472 Z M160.197753,17.0786517 L160.197753,7.91011236 L158.669663,7.91011236 L158.669663,17.0786517 L160.197753,17.0786517 Z M166.750562,21.2494382 C168.080899,21.2494382 169.153558,20.8629213 169.968539,20.0898876 C170.783521,19.3168539 171.191011,18.1932584 171.191011,16.7191011 L171.191011,16.7191011 L171.191011,7.91011236 L169.734831,7.91011236 L169.734831,9.22247191 L169.662921,9.22247191 C169.363296,8.74307116 168.940824,8.35655431 168.395506,8.06292135 C167.850187,7.76928839 167.229963,7.62247191 166.534831,7.62247191 C165.74382,7.62247191 165.021723,7.82621723 164.368539,8.23370787 C163.715356,8.6411985 163.197004,9.21348315 162.813483,9.9505618 C162.429963,10.6876404 162.238202,11.517603 162.238202,12.4404494 C162.238202,13.3752809 162.429963,14.2082397 162.813483,14.9393258 C163.197004,15.670412 163.715356,16.2397004 164.368539,16.647191 C165.021723,17.0546816 165.74382,17.258427 166.534831,17.258427 C167.229963,17.258427 167.850187,17.1116105 168.395506,16.8179775 C168.940824,16.5243446 169.363296,16.1438202 169.662921,15.6764045 L169.662921,15.6764045 L169.734831,15.6764045 L169.734831,16.7011236 C169.734831,17.7078652 169.474157,18.4868914 168.952809,19.0382022 C168.431461,19.5895131 167.697378,19.8651685 166.750562,19.8651685 C166.103371,19.8651685 165.543071,19.7003745 165.069663,19.3707865 C164.596255,19.0411985 164.26367,18.6127341 164.07191,18.0853933 L164.07191,18.0853933 L162.669663,18.6786517 C162.909363,19.3857678 163.379775,19.9910112 164.080899,20.494382 C164.782022,20.9977528 165.67191,21.2494382 166.750562,21.2494382 Z M166.750562,15.8741573 C166.199251,15.8741573 165.69588,15.7393258 165.240449,15.4696629 C164.785019,15.2 164.422472,14.8044944 164.152809,14.2831461 C163.883146,13.7617978 163.748315,13.1475655 163.748315,12.4404494 C163.748315,11.7333333 163.883146,11.1220974 164.152809,10.6067416 C164.422472,10.0913858 164.785019,9.69588015 165.240449,9.42022472 C165.69588,9.14456929 166.199251,9.00674157 166.750562,9.00674157 C167.301873,9.00674157 167.802247,9.14157303 168.251685,9.41123596 C168.701124,9.68089888 169.060674,10.0734082 169.330337,10.588764 C169.6,11.1041199 169.734831,11.7213483 169.734831,12.4404494 C169.734831,13.1475655 169.6,13.7588015 169.330337,14.2741573 C169.060674,14.7895131 168.701124,15.1850187 168.251685,15.4606742 C167.802247,15.7363296 167.301873,15.8741573 166.750562,15.8741573 Z M175.208989,17.0786517 L175.208989,11.9730337 C175.208989,11.4816479 175.325843,11.0082397 175.559551,10.552809 C175.793258,10.0973783 176.110861,9.7258427 176.51236,9.43820225 C176.913858,9.1505618 177.354307,9.00674157 177.833708,9.00674157 C178.504869,9.00674157 179.050187,9.20449438 179.469663,9.6 C179.889139,9.99550562 180.098876,10.6067416 180.098876,11.4337079 L180.098876,11.4337079 L180.098876,17.0786517 L181.626966,17.0786517 L181.626966,11.2 C181.626966,10.1213483 181.333333,9.25543071 180.746067,8.60224719 C180.158801,7.94906367 179.307865,7.62247191 178.193258,7.62247191 C177.546067,7.62247191 176.949813,7.77827715 176.404494,8.08988764 C175.859176,8.40149813 175.460674,8.79101124 175.208989,9.25842697 L175.208989,9.25842697 L175.137079,9.25842697 L175.208989,8 L175.208989,4.20674157 L173.680899,4.20674157 L173.680899,17.0786517 L175.208989,17.0786517 Z M187.119101,17.2224719 C187.406742,17.2224719 187.643446,17.2044944 187.829213,17.1685393 C188.014981,17.1325843 188.197753,17.0726592 188.377528,16.988764 L188.377528,16.988764 L188.377528,15.4966292 C188.077903,15.7003745 187.742322,15.8022472 187.370787,15.8022472 C186.939326,15.8022472 186.609738,15.670412 186.382022,15.4067416 C186.190262,15.1670412 186.094382,14.7955056 186.094382,14.2921348 L186.094382,14.2921348 L186.094382,9.29438202 L188.341573,9.29438202 L188.341573,7.91011236 L186.094382,7.91011236 L186.094382,5.32134831 L184.566292,5.32134831 L184.566292,7.91011236 L182.966292,7.91011236 L182.966292,9.29438202 L184.566292,9.29438202 L184.566292,14.6696629 C184.566292,15.4726592 184.805993,16.1018727 185.285393,16.5573034 C185.501124,16.7610487 185.76779,16.9228464 186.085393,17.0426966 C186.402996,17.1625468 186.747566,17.2224719 187.119101,17.2224719 Z M193.779775,17.3662921 C194.450936,17.3662921 195.062172,17.2524345 195.613483,17.0247191 C196.164794,16.7970037 196.602247,16.470412 196.925843,16.0449438 C197.249438,15.6194757 197.411236,15.1250936 197.411236,14.5617978 C197.411236,13.9146067 197.183521,13.3662921 196.72809,12.9168539 C196.272659,12.4674157 195.595506,12.128839 194.696629,11.9011236 L194.696629,11.9011236 L193.366292,11.5595506 C192.838951,11.4277154 192.443446,11.2569288 192.179775,11.047191 C191.916105,10.8374532 191.78427,10.564794 191.78427,10.2292135 C191.78427,9.86966292 191.973034,9.57303371 192.350562,9.33932584 C192.72809,9.10561798 193.168539,8.98876404 193.67191,8.98876404 C194.714607,8.98876404 195.4397,9.39625468 195.847191,10.211236 L195.847191,10.211236 L197.177528,9.6 C196.913858,8.97677903 196.467416,8.49138577 195.838202,8.14382022 C195.208989,7.79625468 194.492884,7.62247191 193.689888,7.62247191 C193.078652,7.62247191 192.509363,7.73033708 191.982022,7.94606742 C191.454682,8.16179775 191.03221,8.47041199 190.714607,8.87191011 C190.397004,9.27340824 190.238202,9.73782772 190.238202,10.2651685 C190.238202,10.9483146 190.47191,11.505618 190.939326,11.9370787 C191.406742,12.3685393 192.005993,12.6741573 192.737079,12.8539326 L192.737079,12.8539326 L193.851685,13.141573 C194.546816,13.3093633 195.05618,13.5101124 195.379775,13.7438202 C195.703371,13.9775281 195.865169,14.2861423 195.865169,14.6696629 C195.865169,15.1011236 195.661423,15.4337079 195.253933,15.6674157 C194.846442,15.9011236 194.355056,16.0179775 193.779775,16.0179775 C193.240449,16.0179775 192.746067,15.8681648 192.296629,15.5685393 C191.847191,15.2689139 191.508614,14.8434457 191.280899,14.2921348 L191.280899,14.2921348 L189.914607,14.9033708 C190.190262,15.6224719 190.657678,16.2127341 191.316854,16.6741573 C191.97603,17.1355805 192.797004,17.3662921 193.779775,17.3662921 Z" id="path-1"></path>
        <path d="M5.1277704,-2.07168062e-16 L32.6250386,-1.7961546e-15 C34.4080761,1.04361755e-15 35.0546485,0.185651222 35.7065004,0.534265408 C36.3583522,0.882879593 36.8699294,1.39445674 37.2185436,2.04630859 C37.5671578,2.69816044 37.752809,3.34473292 37.752809,5.1277704 L37.752809,12.8497577 C37.752809,14.6327952 37.5671578,15.2793676 37.2185436,15.9312195 C36.8699294,16.5830713 36.3583522,17.0946485 35.7065004,17.4432627 C35.0546485,17.7918769 34.4080761,17.9775281 32.6250386,17.9775281 L5.1277704,17.9775281 C3.34473292,17.9775281 2.69816044,17.7918769 2.04630859,17.4432627 C1.39445674,17.0946485 0.882879593,16.5830713 0.534265408,15.9312195 C0.185651222,15.2793676 8.02470732e-17,14.6327952 -1.38112041e-16,12.8497577 L1.38112041e-16,5.1277704 C-8.02470732e-17,3.34473292 0.185651222,2.69816044 0.534265408,2.04630859 C0.882879593,1.39445674 1.39445674,0.882879593 2.04630859,0.534265408 C2.69816044,0.185651222 3.34473292,1.2037061e-16 5.1277704,-2.07168062e-16 Z" id="path-2"></path>
    </defs>
    <g id="Symbols" stroke="none" stroke-width="1" fill="none" fill-rule="evenodd">
        <g id="🖥/Misc/OGB" transform="translate(-26.000000, -22.000000)">
            <g id="Large/title">
                <g id="TT-lockup/outline" transform="translate(26.000000, 21.000000)">
                    <g id="SearchConsoleInsights" fill-rule="nonzero" fill="#3C4043">
                        <use xlink:href="#path-1"></use>
                        <use xlink:href="#path-1"></use>
                    </g>
                    <g id="Chip/Reg/Filter/Hairline/Selected/Default-2" stroke-width="1" fill-rule="evenodd" transform="translate(202.247191, 1.797753)">
                        <g id="Chip/Reg/Filter/Hairline/Selected/Default">
                            <mask id="mask-3" fill="white">
                                <use xlink:href="#path-2"></use>
                            </mask>
                            <use id="Mask" fill="#E8EAED" xlink:href="#path-2"></use>
                            <path d="M8.75272119,12.5842697 C9.54128626,12.5842697 10.1471939,12.4072449 10.5704441,12.0531952 C10.9936944,11.6991456 11.2053195,11.1922109 11.2053195,10.5323912 C11.2053195,10.1332807 11.1015186,9.79130091 10.8939168,9.5064519 C10.6863149,9.22160288 10.3926147,9.02768024 10.012816,8.92468399 C10.3475538,8.78306414 10.6018258,8.5835089 10.775632,8.32601826 C10.9494382,8.06852762 11.0363413,7.77885066 11.0363413,7.45698736 C11.0363413,6.8261353 10.8287394,6.35138694 10.4135358,6.03274228 C9.99833214,5.71409761 9.39322915,5.55477528 8.5982268,5.55477528 L8.5982268,5.55477528 L6.18908003,5.55477528 L6.18908003,12.5842697 L8.75272119,12.5842697 Z M8.6078827,8.51430829 L7.41055124,8.51430829 L7.41055124,6.53967697 L8.5982268,6.53967697 C9.01664909,6.53967697 9.32483319,6.61692416 9.52277912,6.77141854 C9.72072505,6.92591292 9.81969801,7.17696629 9.81969801,7.52457865 C9.81969801,7.84000468 9.71267847,8.08381613 9.49863937,8.25601299 C9.28460028,8.42820985 8.98768139,8.51430829 8.6078827,8.51430829 L8.6078827,8.51430829 Z M8.76720503,11.6090239 L7.41055124,11.6090239 L7.41055124,9.41230688 L8.86859197,9.41230688 C9.61531482,9.42840005 9.98867624,9.80176147 9.98867624,10.5323912 C9.98867624,10.8703476 9.88085204,11.1342755 9.66520363,11.3241749 C9.44955522,11.5140742 9.15022236,11.6090239 8.76720503,11.6090239 L8.76720503,11.6090239 Z M17.7420997,12.5842697 L17.7420997,11.6090239 L14.3673631,11.6090239 L14.3673631,9.44610253 L17.2544768,9.44610253 L17.2544768,8.48051264 L14.3673631,8.48051264 L14.3673631,6.53967697 L17.7083041,6.53967697 L17.7083041,5.55477528 L13.1458918,5.55477528 L13.1458918,12.5842697 L17.7420997,12.5842697 Z M22.4394312,12.5842697 L22.4394312,6.53967697 L24.6313202,6.53967697 L24.6313202,5.55477528 L19.0550386,5.55477528 L19.0550386,6.53967697 L21.2276159,6.53967697 L21.2276159,12.5842697 L22.4394312,12.5842697 Z M26.335323,12.5842697 L26.9050211,10.9475948 L29.6279846,10.9475948 L30.2025105,12.5842697 L31.4770892,12.5842697 L28.8168891,5.55477528 L27.7209445,5.55477528 L25.0655723,12.5842697 L26.335323,12.5842697 Z M29.2852002,9.96269312 L27.2478055,9.96269312 L28.2665028,7.04661166 L29.2852002,9.96269312 Z" id="BETA" fill="#3C4043" fill-rule="nonzero" mask="url(#mask-3)"></path>
                        </g>
                    </g>
                </g>
            </g>
        </g>
    </g>
</svg>
